PathFileType	4	(X/Y/Z)	C:/Users/opensim2020/Desktop/walking_exp_matlab/subject03_walking04_straight_01.trc																																																																																																																																																							
DataRate	CameraRate	NumFrames	NumMarkers	Units	OrigDataRate	OrigDataStartFrame	OrigNumFrames																																																																																																																																																			
100	100	7	51	mm	100	901	265																																																																																																																																																			
Frame#	Time	LFHD			RFHD			LBHD			RBHD			C7			T10			CLAV			STRN			RBAK			LSHO			LUPA			LELB			LFRM			LWRA			LWRB			LFIN			RSHO			RUPA			RELB			RFRM			RWRA			RWRB			RFIN			LASI			RASI			LPSI			RPSI			LTHI			LKNE			LTIB			LANK			LHEE			LTOE			RTHI			RKNE			RTIB			RANK			RHEE			RTOE			*39			*40			*41			*42			*43			*44			*45			*46			*47			*48			*49			*50		
		X1	Y1	Z1	X2	Y2	Z2	X3	Y3	Z3	X4	Y4	Z4	X5	Y5	Z5	X6	Y6	Z6	X7	Y7	Z7	X8	Y8	Z8	X9	Y9	Z9	X10	Y10	Z10	X11	Y11	Z11	X12	Y12	Z12	X13	Y13	Z13	X14	Y14	Z14	X15	Y15	Z15	X16	Y16	Z16	X17	Y17	Z17	X18	Y18	Z18	X19	Y19	Z19	X20	Y20	Z20	X21	Y21	Z21	X22	Y22	Z22	X23	Y23	Z23	X24	Y24	Z24	X25	Y25	Z25	X26	Y26	Z26	X27	Y27	Z27	X28	Y28	Z28	X29	Y29	Z29	X30	Y30	Z30	X31	Y31	Z31	X32	Y32	Z32	X33	Y33	Z33	X34	Y34	Z34	X35	Y35	Z35	X36	Y36	Z36	X37	Y37	Z37	X38	Y38	Z38	X39	Y39	Z39	X40	Y40	Z40	X41	Y41	Z41	X42	Y42	Z42	X43	Y43	Z43	X44	Y44	Z44	X45	Y45	Z45	X46	Y46	Z46	X47	Y47	Z47	X48	Y48	Z48	X49	Y49	Z49	X50	Y50	Z50	X51	Y51	Z51
																																																																																																																																																										
166	1.65	145.53845	1617.77832	-1249.83105	120.28298	1624.26477	-1118.69373	23.00105	1562.06274	-1266.92505	3.42223	1568.61865	-1137.40405	-4.81173	1411.15198	-1196.24133	-45.69449	1100.32776	-1189.48328	115.92999	1333.97546	-1191.93579	155.45923	1166.54578	-1193.87402	-58.51867	1241.91406	-1091.42822	71.98066	1369.04724	-1349.87476	40.0862	1170.80457	-1417.6134	32.09849	1047.98157	-1428.69055	41.18823	917.11713	-1428.18665	43.6765	798.43469	-1398.3147	21.91111	806.36432	-1449.43152	23.45481	721.80811	-1439.13013	73.98885	1362.09204	-1034.10571	116.99506	1148.77393	-953.43311	161.8571	1046.10608	-939.0816	221.35355	922.81812	-940.32477	277.37552	842.62152	-980.24664	253.71234	827.81091	-933.96698	299.56766	769.91754	-946.50677	123.53041	936.41974	-1303.58459	116.21532	930.82928	-1066.75281	-41.04079	954.07025	-1261.56775	-42.35375	964.61383	-1111.10815	147.06706	642.74841	-1361.17468	214.19031	478.59705	-1324.98169	187.5226	284.6142	-1331.42273	195.5341	73.12905	-1298.37183	157.73149	33.94841	-1260.22852	342.13437	47.16219	-1273.38696	32.17875	638.12775	-1039.83167	18.76021	459.73462	-1080.08923	-53.43492	281.61392	-1080.64429	-114.00517	73.90616	-1134.49719	-161.48105	45.70882	-1184.66602	25.53094	30.5862	-1150.07837	48.66364	1675.08386	-1216.7782	NaN	NaN	NaN	NaN	NaN	NaN	NaN	NaN	NaN	NaN	NaN	NaN	NaN	NaN	NaN	NaN	NaN	NaN	NaN	NaN	NaN	NaN	NaN	NaN	NaN	NaN	NaN	NaN	NaN	NaN	NaN	NaN	NaN
167	1.66	155.73427	1616.14734	-1250.8208	130.50166	1623.00891	-1119.71936	33.0111	1560.7334	-1267.76379	13.54163	1567.68958	-1138.24109	4.94323	1410.11804	-1196.92114	-36.88987	1099.32275	-1190.6958	125.57243	1332.56689	-1192.41345	164.41577	1165.03955	-1194.12854	-49.44574	1241.13977	-1092.1499	82.01347	1367.68738	-1350.51978	47.87494	1169.96191	-1418.60095	38.33815	1046.99402	-1429.41602	46.49992	916.45361	-1428.62219	47.54391	797.43915	-1398.60583	26.1532	805.58832	-1449.80127	26.24783	720.1076	-1439.13477	83.48123	1360.96045	-1034.72742	127.34	1147.99365	-954.06598	172.90984	1045.68591	-940.01129	233.92505	923.21686	-942.14557	290.65109	844.05731	-982.97412	267.5939	828.67401	-936.50397	314.45206	771.85553	-949.32935	132.94672	934.78674	-1304.06128	124.53657	929.78485	-1067.15674	-31.91957	952.41003	-1262.70886	-33.89797	963.34039	-1112.22925	154.10591	639.96362	-1361.96631	222.85782	476.88028	-1324.45056	203.84033	282.94836	-1331.21533	221.7744	71.89949	-1298.66907	185.57343	31.66562	-1260.53955	369.49438	50.54338	-1273.57056	38.93224	637.51709	-1039.98303	24.14689	459.19778	-1080.00403	-50.34319	281.7283	-1080.65344	-113.17363	74.81528	-1134.40527	-161.2789	46.92683	-1184.54382	25.47687	30.51435	-1150.18811	59.86453	1669.49866	-1219.63135	NaN	NaN	NaN	NaN	NaN	NaN	NaN	NaN	NaN	NaN	NaN	NaN	NaN	NaN	NaN	NaN	NaN	NaN	NaN	NaN	NaN	NaN	NaN	NaN	NaN	NaN	NaN	NaN	NaN	NaN	NaN	NaN	NaN
168	1.67	165.90254	1614.53894	-1251.87073	140.85176	1621.75171	-1120.75342	43.06624	1559.3761	-1268.56567	23.62583	1566.73425	-1139.04822	14.77932	1409.11987	-1197.70044	-28.02731	1098.33789	-1191.93005	135.27878	1331.16345	-1192.88208	173.53552	1163.53284	-1194.44556	-40.32444	1240.38196	-1092.99683	92.20215	1366.26221	-1351.05371	55.6946	1168.98401	-1419.15503	44.8377	1046.24548	-1430.44312	51.843	915.51129	-1429.14905	52.07942	796.59961	-1398.81091	30.512	804.74518	-1450.17432	30.24179	719.43085	-1439.45581	92.96066	1359.76978	-1035.42993	137.54065	1147.22229	-954.59955	183.90611	1045.23694	-941.00189	246.25125	923.53766	-944.11523	303.6077	845.30042	-985.69897	281.10925	829.41241	-939.1532	328.75916	773.53638	-952.62189	142.47838	933.12738	-1304.73315	132.68187	928.58942	-1067.41895	-22.57465	950.78571	-1263.8822	-25.39691	961.98993	-1113.39526	161.18906	637.39465	-1362.75574	231.20328	475.01218	-1323.99805	219.39102	281.44989	-1330.8595	246.46394	71.1664	-1298.83801	212.10074	29.96816	-1260.62744	395.46832	54.65723	-1274.18274	45.93204	636.8645	-1040.09094	29.7577	458.62299	-1079.92432	-47.03381	281.8707	-1080.61951	-112.69006	75.76865	-1134.19397	-160.97495	48.41145	-1184.54712	25.60676	30.46644	-1150.09583	70.22921	1668.36829	-1221.29028	NaN	NaN	NaN	NaN	NaN	NaN	NaN	NaN	NaN	NaN	NaN	NaN	NaN	NaN	NaN	NaN	NaN	NaN	NaN	NaN	NaN	NaN	NaN	NaN	NaN	NaN	NaN	NaN	NaN	NaN	NaN	NaN	NaN
169	1.68	176.21106	1612.89453	-1252.93665	151.16451	1620.49194	-1121.87415	53.128	1558.01135	-1269.42358	33.80022	1565.71106	-1139.87891	24.59843	1408.08374	-1198.54932	-19.00718	1097.30078	-1193.10657	145.0112	1329.77405	-1193.42188	182.75804	1162.05688	-1194.84448	-31.22391	1239.54846	-1093.91028	102.39783	1365.00439	-1351.75183	63.53989	1168.13806	-1419.81616	51.37519	1045.34827	-1430.8634	57.4761	914.68091	-1429.72314	56.95607	795.83173	-1399.21729	35.2011	804.08374	-1450.55298	35.40588	719.70465	-1440.05518	102.50614	1358.57434	-1036.29419	147.85678	1146.44202	-955.43127	194.67281	1044.67847	-942.11029	258.36365	923.75732	-946.23523	316.05942	846.32214	-988.58551	294.29532	830.04016	-941.84161	342.64377	775.00763	-955.91766	152.09389	931.58008	-1305.28955	141.41814	927.53955	-1067.96521	-13.25198	949.21063	-1265.06409	-16.82768	960.70581	-1114.62317	168.97684	635.42859	-1364.12207	239.18991	473.04517	-1323.39343	233.98886	280.01028	-1330.50903	269.52805	70.85486	-1298.93469	236.80646	28.68772	-1260.4939	419.41364	59.02538	-1275.18774	52.89264	636.29877	-1039.91028	35.64806	457.97491	-1079.8208	-43.64867	282.05621	-1080.75452	-112.08715	76.93081	-1133.92346	-161.06656	50.12347	-1184.04541	25.73505	30.37587	-1149.96814	79.16749	1670.427	-1219.06726	NaN	NaN	NaN	NaN	NaN	NaN	NaN	NaN	NaN	NaN	NaN	NaN	NaN	NaN	NaN	NaN	NaN	NaN	NaN	NaN	NaN	NaN	NaN	NaN	NaN	NaN	NaN	NaN	NaN	NaN	NaN	NaN	NaN
170	1.69	186.37321	1611.22205	-1253.88159	161.39682	1619.26038	-1122.84094	63.25624	1556.70618	-1270.28699	44.13332	1564.76843	-1140.75488	34.44629	1407.07825	-1199.46387	-9.91389	1096.2876	-1194.28638	154.81213	1328.44031	-1193.98865	192.10086	1160.70337	-1195.16516	-22.11839	1238.73816	-1094.94666	112.67648	1363.80579	-1352.53821	71.61787	1167.15088	-1420.10657	58.34079	1044.78247	-1431.80212	63.34693	913.94196	-1430.48157	62.2565	795.1106	-1399.83557	40.16339	803.39447	-1450.79553	40.07409	719.17725	-1440.51416	111.91768	1357.41687	-1037.02173	158.00104	1145.65601	-956.15277	205.31004	1044.06519	-943.33875	269.97552	923.7868	-948.073	328.20718	847.19299	-991.49835	306.95529	830.505	-944.58575	355.89163	776.14813	-959.16388	161.74548	930.14612	-1305.86902	150.21812	926.48645	-1068.45959	-3.75322	947.74426	-1266.29614	-8.05058	959.36047	-1115.90125	177.36061	633.94952	-1365.62927	246.79846	470.75055	-1322.99719	247.78191	278.77994	-1329.99609	290.88474	70.90456	-1299.07971	259.89493	27.74621	-1260.61646	441.44531	63.40565	-1276.34485	60.20568	635.62067	-1040.23267	41.78197	457.3877	-1079.7644	-39.93119	282.29919	-1080.72644	-111.71506	77.88817	-1133.71362	-160.52046	51.78924	-1183.9303	25.87526	30.32108	-1149.8573	90.76392	1669.72583	-1221.58289	NaN	NaN	NaN	NaN	NaN	NaN	NaN	NaN	NaN	NaN	NaN	NaN	NaN	NaN	NaN	NaN	NaN	NaN	NaN	NaN	NaN	NaN	NaN	NaN	NaN	NaN	NaN	NaN	NaN	NaN	NaN	NaN	NaN
171	1.7	196.70543	1609.77588	-1255.01941	171.81265	1618.05664	-1123.92102	73.39394	1555.43384	-1271.16687	54.2369	1563.76611	-1141.68689	44.18502	1406.1167	-1200.5498	-0.59312	1095.24524	-1195.47766	164.65193	1327.24268	-1194.64246	201.10106	1159.40308	-1195.37939	-13.38321	1237.99072	-1096.01648	122.92217	1362.66455	-1353.33313	80.07112	1166.34131	-1420.83569	65.49275	1044.10583	-1432.48096	69.59859	913.24561	-1431.23145	67.99693	794.48199	-1400.53577	45.46903	802.90021	-1451.26697	45.13993	718.64966	-1440.99866	121.39608	1356.28271	-1037.90222	168.12952	1144.88794	-957.27142	215.7588	1043.39197	-944.6944	281.4299	923.7077	-950.43182	339.8743	847.81146	-994.3418	319.26669	830.7796	-947.30341	368.58585	776.97919	-962.52094	171.71178	928.89392	-1306.44653	159.03035	925.45471	-1068.94568	5.97741	946.36035	-1267.53931	0.91229	958.07141	-1117.20691	184.97723	631.57642	-1366.14282	254.52417	468.86676	-1322.35095	260.79663	277.74448	-1329.66064	310.36142	71.15289	-1299.45032	281.06805	27.05811	-1260.60657	461.45493	67.68715	-1277.7948	67.78906	635.00568	-1040.90381	48.17651	456.83713	-1079.66919	-35.87349	282.77753	-1080.61267	-110.40926	79.37873	-1133.60474	-160.27678	53.91179	-1183.54468	26.04753	30.23644	-1149.75317	101.43704	1664.6145	-1224.76904	NaN	NaN	NaN	NaN	NaN	NaN	NaN	NaN	NaN	NaN	NaN	NaN	NaN	NaN	NaN	NaN	NaN	NaN	NaN	NaN	NaN	NaN	NaN	NaN	NaN	NaN	NaN	NaN	NaN	NaN	NaN	NaN	NaN
172	1.71	207.05113	1608.37	-1256.02075	182.21245	1616.95532	-1125.03748	83.6037	1554.27832	-1272.11182	64.46637	1562.87146	-1142.57397	53.91382	1405.19763	-1201.67639	8.8544	1094.28125	-1196.65845	174.55492	1326.09851	-1195.37854	210.66566	1158.24121	-1195.77954	-4.11571	1237.03979	-1097.36572	133.2149	1361.68127	-1354.26843	88.67996	1165.61108	-1421.43372	73.06606	1043.51062	-1433.19397	76.16379	912.59912	-1431.94214	74.06989	793.83643	-1401.35474	51.12266	802.38617	-1451.7395	50.62956	718.20441	-1441.50024	130.82227	1355.19812	-1038.8468	178.11349	1144.03857	-958.35425	226.00795	1042.64783	-946.08929	292.40146	923.47992	-952.53326	351.19687	848.18329	-997.17224	331.09946	830.88074	-950.0152	380.73526	777.55225	-965.83972	181.77039	927.76593	-1307.02759	168.00349	924.47449	-1069.39246	15.77913	945.18182	-1268.78296	9.92183	956.86462	-1118.50818	193.85938	630.24054	-1366.70264	262.12186	467.0217	-1321.7439	273.00925	276.91336	-1329.36511	328.08487	71.50534	-1300.02625	300.02142	26.54956	-1261.09058	479.37637	71.13467	-1279.23413	75.20966	634.60138	-1040.82288	54.77751	456.31851	-1079.62207	-31.90806	283.17361	-1080.68909	-109.65911	80.98076	-1133.33582	-159.58069	56.09468	-1183.41882	26.2438	30.15388	-1149.6366	111.70969	1667.18042	-1223.86816	NaN	NaN	NaN	NaN	NaN	NaN	NaN	NaN	NaN	NaN	NaN	NaN	NaN	NaN	NaN	NaN	NaN	NaN	NaN	NaN	NaN	NaN	NaN	NaN	NaN	NaN	NaN	NaN	NaN	NaN	NaN	NaN	NaN
